<svg xmlns="http://www.w3.org/2000/svg" viewBox="0 0 410.77 163.73"><defs><style>.cls-1{fill:#13100d;}.cls-2{fill:#e30613;}</style></defs><title>1Asset 1</title><g id="Layer_2" data-name="Layer 2"><g id="Layer_1-2" data-name="Layer 1"><path class="cls-1" d="M321,15.81c6,28.35-34.21,59.37-34.21,59.37l1,1.75,47.78-27.22A5,5,0,1,1,337,52.18L289.24,79.4l1,1.75s47.17-18.73,68.52.86c9.57-36.21,52-56.75,52-56.75L396.38,0S357.05,26,321,15.81Z"/><path class="cls-1" d="M29.82,49.52H27.93L20.68,24.05q-.9-3.14-1.36-5.14c-.24,1.3-.58,2.81-1,4.51S15.43,33.82,11,49.52H9.08L0,16.51H2.41L8.19,37.78c.23.86.44,1.65.64,2.38s.37,1.42.53,2.06.3,1.25.43,1.85.24,1.19.35,1.79c.36-2,1.12-5.15,2.3-9.32l5.64-20h2.56l6.61,23q1.16,4,1.65,6.41c.19-1.08.45-2.24.75-3.46s2.63-9.86,7-25.94h2.32Z"/><path class="cls-1" d="M40.1,25h2.3l5.19,13.77q2.37,6.34,3,8.56h.14q.95-2.91,3.09-8.69L59,25h2.3l-11,28.51a21.91,21.91,0,0,1-2.23,4.7A6.08,6.08,0,0,1,46,60a6.54,6.54,0,0,1-2.93.61,9.88,9.88,0,0,1-2.86-.48V58.21a10.57,10.57,0,0,0,2.82.36A3.8,3.8,0,0,0,45,58a5,5,0,0,0,1.59-1.68,21.11,21.11,0,0,0,1.65-3.61c.63-1.65,1-2.72,1.21-3.22Z"/><path class="cls-1" d="M74.41,24.5a10.18,10.18,0,0,1,4.61,1A9.16,9.16,0,0,1,82.5,28.8h.13c-.09-1.9-.13-3.76-.13-5.58V14.39h2.21V49.52H83.24l-.56-3.75H82.5a9.09,9.09,0,0,1-8,4.2q-5.08,0-7.77-3.16T64,37.6q0-6.36,2.67-9.73C68.44,25.63,71,24.5,74.41,24.5Zm0,2a7,7,0,0,0-6,2.82c-1.34,1.88-2,4.61-2,8.19Q66.35,48,74.46,48q4.16,0,6.09-2.42t2-8v-.38c0-3.8-.64-6.52-1.91-8.19S77.26,26.54,74.41,26.54Z"/><path class="cls-1" d="M107.85,49.52l-.57-3.88h-.18A11.68,11.68,0,0,1,103.3,49a10.09,10.09,0,0,1-4.62,1,8,8,0,0,1-5.62-1.85,6.61,6.61,0,0,1-2-5.12,6.32,6.32,0,0,1,3-5.58c2-1.32,4.88-2,8.66-2.1l4.68-.14V33.56A8.36,8.36,0,0,0,106,28.27a5.53,5.53,0,0,0-4.58-1.78,15.29,15.29,0,0,0-7.07,1.9l-.83-1.94a18.61,18.61,0,0,1,8-1.9q4,0,6,2.1t2,6.55V49.52Zm-9-1.58a8.43,8.43,0,0,0,6.2-2.25,8.38,8.38,0,0,0,2.26-6.24V37l-4.29.18q-5.16.24-7.37,1.61a4.67,4.67,0,0,0-2.2,4.26,4.55,4.55,0,0,0,1.41,3.57A5.7,5.7,0,0,0,98.82,47.94Z"/><path class="cls-1" d="M137.06,49.52l-5.37-16.41q-.52-1.68-1.33-4.9h-.14l-.47,1.67-1,3.27-5.46,16.37h-2.21L114,25h2.39l3.93,14.22c.91,3.52,1.52,6.11,1.8,7.77h.14c.89-3.52,1.53-5.86,1.94-7l5.06-15h2l4.81,14.92q1.62,5.31,2,7h.13c.12-1,.72-3.59,1.81-7.85L143.81,25h2.26l-6.66,24.54Z"/><path class="cls-1" d="M168,49.52V33.6c0-2.46-.52-4.26-1.56-5.38a6.29,6.29,0,0,0-4.83-1.68q-4.41,0-6.45,2.22c-1.36,1.48-2,3.89-2,7.21V49.52h-2.24V25h1.9l.43,3.36h.13c1.6-2.55,4.44-3.84,8.51-3.84q8.35,0,8.36,9V49.52Z"/><path class="cls-1" d="M177.84,18.16c0-1.44.47-2.17,1.42-2.17a1.27,1.27,0,0,1,1.1.57,2.8,2.8,0,0,1,.39,1.6,2.85,2.85,0,0,1-.39,1.6,1.25,1.25,0,0,1-1.1.59C178.31,20.35,177.84,19.62,177.84,18.16Zm2.55,31.36h-2.24V25h2.24Z"/><path class="cls-1" d="M198.41,50a10.51,10.51,0,0,1-8.25-3.32q-3-3.32-3-9.25,0-6.1,3.09-9.5a10.89,10.89,0,0,1,8.47-3.4,16.94,16.94,0,0,1,6.09,1.11l-.61,2a17.77,17.77,0,0,0-5.53-1.06q-4.51,0-6.84,2.79t-2.33,8c0,3.31.78,5.91,2.33,7.78a8,8,0,0,0,6.5,2.81,15.91,15.91,0,0,0,6.21-1.2v2.08A14,14,0,0,1,198.41,50Z"/><path class="cls-1" d="M217.06,48a16.24,16.24,0,0,0,3.7-.37v1.81A11.9,11.9,0,0,1,217,50a6.1,6.1,0,0,1-4.8-1.74q-1.54-1.74-1.54-5.46V26.92H207V25.61l3.64-1L211.79,19H213V25h7.2v1.94H213V42.45a7.09,7.09,0,0,0,1,4.18A3.62,3.62,0,0,0,217.06,48Z"/><path class="cls-1" d="M245.68,49.52l-5.37-16.41q-.52-1.68-1.33-4.9h-.14l-.47,1.67-1,3.27-5.46,16.37h-2.21l-7-24.54h2.4L229,39.2c.91,3.52,1.52,6.11,1.8,7.77h.14c.89-3.52,1.53-5.86,1.94-7l5.06-15h2l4.81,14.92q1.62,5.31,2,7h.14c.12-1,.72-3.59,1.81-7.85L252.43,25h2.26L248,49.52Z"/><path class="cls-1" d="M279.8,37.22q0,6-2.92,9.38a10,10,0,0,1-8,3.37,10.38,10.38,0,0,1-5.69-1.56,9.86,9.86,0,0,1-3.77-4.47,16.12,16.12,0,0,1-1.31-6.72q0-6,2.91-9.36a10,10,0,0,1,8-3.36,9.87,9.87,0,0,1,7.94,3.4Q279.8,31.31,279.8,37.22Zm-19.37,0q0,5.06,2.22,7.89a8.39,8.39,0,0,0,12.57,0q2.23-2.84,2.23-7.89t-2.25-7.88a7.62,7.62,0,0,0-6.31-2.8,7.49,7.49,0,0,0-6.26,2.79C261.16,31.19,260.43,33.81,260.43,37.22Z"/><path class="cls-1" d="M16.43,162.62H3.67V75H21.81a55.61,55.61,0,0,1,9.18.61,10.57,10.57,0,0,1,5.59,2.55,10.11,10.11,0,0,1,2.76,5.44,47.71,47.71,0,0,1,.72,9.26v9.21a18.1,18.1,0,0,1-.72,5.6,9.93,9.93,0,0,1-1.86,3.49,7.32,7.32,0,0,1-2.54,2,16.93,16.93,0,0,1-2.69.94v.44a15.75,15.75,0,0,1,3.19,1.17,6.66,6.66,0,0,1,2.47,2.22,11,11,0,0,1,1.6,3.82,26.72,26.72,0,0,1,.55,6v35H27.3V125.68c0-2.37-.3-4-.89-4.94s-2-1.38-4.21-1.38H16.43Zm0-53.36H22.2c2.07,0,3.44-.41,4.1-1.22s1-2.29,1-4.44V92.84a27.71,27.71,0,0,0-.16-3.38,4.64,4.64,0,0,0-.73-2.06,2.83,2.83,0,0,0-1.66-1.05,12.48,12.48,0,0,0-2.88-.28H16.43Z"/><path class="cls-1" d="M59.36,133.33V149c0,2.14.28,3.53.84,4.16s1.89.94,4,.94,3.33-.32,3.93-.94.9-2,.9-4.16v-9h10.2v9.65a35.69,35.69,0,0,1-.61,7.43,7.85,7.85,0,0,1-2.27,4.28,8.7,8.7,0,0,1-4.55,1.94,52.5,52.5,0,0,1-7.55.44,59.41,59.41,0,0,1-8-.44,9.52,9.52,0,0,1-4.88-1.95A7.5,7.5,0,0,1,49,157.07a36,36,0,0,1-.61-7.45V109.06a35.86,35.86,0,0,1,.61-7.44,7.46,7.46,0,0,1,2.39-4.28,9.52,9.52,0,0,1,4.88-2,59.41,59.41,0,0,1,8-.44,52.5,52.5,0,0,1,7.55.44,8.63,8.63,0,0,1,4.55,2,7.85,7.85,0,0,1,2.27,4.28,36.14,36.14,0,0,1,.61,7.46v24.25Zm0-9.09H69V110q0-3.23-.9-4.11c-.6-.59-1.91-.89-3.93-.89s-3.42.3-4,.89-.84,2-.84,4.11Z"/><path class="cls-1" d="M87.32,109.24a40.14,40.14,0,0,1,.44-6.48,9.06,9.06,0,0,1,1.67-4.15,6.63,6.63,0,0,1,3.27-2.22,18,18,0,0,1,5.38-.67,13,13,0,0,1,6,1.21,8.47,8.47,0,0,1,3.49,3.4V75h11.32v87.64H108.51v-4.77a9.52,9.52,0,0,1-3.94,4.11,14.15,14.15,0,0,1-6.38,1.22,20.22,20.22,0,0,1-5.43-.61,6.36,6.36,0,0,1-3.33-2.16,9.1,9.1,0,0,1-1.67-4.16,41,41,0,0,1-.44-6.59Zm20.64,0a5.08,5.08,0,0,0-5-3.44c-1.92,0-3.18.37-3.77,1.11s-.89,2.22-.89,4.44v36.16c0,2.22.3,3.7.89,4.44s1.85,1.11,3.77,1.11a5.08,5.08,0,0,0,5-3.44Z"/><path class="cls-1" d="M142,163.73a45.12,45.12,0,0,1-6.93-.44,8.51,8.51,0,0,1-4.27-1.78,7.12,7.12,0,0,1-2.17-3.88,30.59,30.59,0,0,1-.61-6.77V134.78q0-6,2.28-8.77t7.82-2.77h2.11a33.91,33.91,0,0,1,5.32.28,7.3,7.3,0,0,1,2.33.72V110.48c0-2.44-.31-4-.94-4.72s-2-1.05-4-1.05-3.25.41-3.77,1.22-.78,2.33-.78,4.55V117H128v-7.88a36.39,36.39,0,0,1,.61-7.43,7.86,7.86,0,0,1,2.28-4.28,8.66,8.66,0,0,1,4.55-1.94,51.44,51.44,0,0,1,7.43-.44,60.54,60.54,0,0,1,8.1.44,9.23,9.23,0,0,1,4.82,1.94,7.91,7.91,0,0,1,2.39,4.28,33.28,33.28,0,0,1,.66,7.43v53.47a32.53,32.53,0,0,1-6.1.83Q148.67,163.73,142,163.73Zm.89-9.32c1.63,0,2.81,0,3.55,0a6.49,6.49,0,0,0,1.44-.17V132.45a4.62,4.62,0,0,0-1.88-.56c-.74-.07-1.74-.11-3-.11-2.14,0-3.46.41-3.94,1.22a10.24,10.24,0,0,0-.72,4.66v10.43c0,1.26,0,2.29.11,3.1a4.38,4.38,0,0,0,.56,1.95,2.25,2.25,0,0,0,1.38,1A8.92,8.92,0,0,0,142.9,154.41Z"/><path class="cls-2" d="M181.06,129.45v33.17H168.3V75h18.14a55.61,55.61,0,0,1,9.18.61,10.84,10.84,0,0,1,5.59,2.49A9.78,9.78,0,0,1,204,83.47a48.33,48.33,0,0,1,.72,9.37v18.75a46.49,46.49,0,0,1-.77,9.43,10.14,10.14,0,0,1-2.82,5.44,10.42,10.42,0,0,1-5.57,2.44,60.51,60.51,0,0,1-9.06.55Zm0-43.38v33.06h5.44a11.36,11.36,0,0,0,2.77-.28,2.76,2.76,0,0,0,1.67-1,5.1,5.1,0,0,0,.77-2.16,23.54,23.54,0,0,0,.22-3.61V92.84a29.26,29.26,0,0,0-.16-3.44,4.16,4.16,0,0,0-.72-2.05,2.92,2.92,0,0,0-1.61-1,12.44,12.44,0,0,0-2.94-.28Z"/><path class="cls-2" d="M223.66,162.62H212.35V96.17h10.54v4.38A9.12,9.12,0,0,1,226.6,97a13.6,13.6,0,0,1,6.6-1.38c3.85,0,6.53,1,8,2.86s2.28,5.42,2.28,10.57v16.53H233.31v-15.2c0-1.78-.29-3-.88-3.66s-1.85-1-3.78-1a4.85,4.85,0,0,0-5,3.67Z"/><path class="cls-2" d="M259.94,133.33V149c0,2.14.28,3.53.84,4.16s1.89.94,4,.94,3.33-.32,3.93-.94.9-2,.9-4.16v-9H279.8v9.65a35.58,35.58,0,0,1-.62,7.43,7.79,7.79,0,0,1-2.27,4.28,8.66,8.66,0,0,1-4.55,1.94,52.44,52.44,0,0,1-7.54.44,59.47,59.47,0,0,1-8-.44,9.52,9.52,0,0,1-4.88-1.95,7.56,7.56,0,0,1-2.39-4.27,36.85,36.85,0,0,1-.6-7.45V109.06a36.68,36.68,0,0,1,.6-7.44A7.52,7.52,0,0,1,252,97.34a9.52,9.52,0,0,1,4.88-2,59.47,59.47,0,0,1,8-.44,52.44,52.44,0,0,1,7.54.44,8.59,8.59,0,0,1,4.55,2,7.79,7.79,0,0,1,2.27,4.28,36,36,0,0,1,.62,7.46v24.25Zm0-9.09h9.65V110q0-3.23-.9-4.11c-.6-.59-1.91-.89-3.93-.89s-3.42.3-4,.89-.84,2-.84,4.11Z"/><path class="cls-2" d="M308.42,115.36v-5c0-1.93-.28-3.2-.84-3.83s-1.89-.94-4-.94-3.53.31-4.09.94-.84,1.9-.84,3.83v5.32a12.48,12.48,0,0,0,.16,2.22,4.15,4.15,0,0,0,.73,1.67,5.38,5.38,0,0,0,1.73,1.44,26.22,26.22,0,0,0,3.07,1.44q2.44,1,4.29,1.89L312,126a21.56,21.56,0,0,1,3.9,2.39,9.17,9.17,0,0,1,2.23,2.49,7.88,7.88,0,0,1,1,2.83,23.93,23.93,0,0,1,.22,3.49v12.32a36.66,36.66,0,0,1-.61,7.49,7.71,7.71,0,0,1-2.33,4.33,9.23,9.23,0,0,1-4.77,1.94,73.22,73.22,0,0,1-16,0,9.6,9.6,0,0,1-4.88-1.94,7.82,7.82,0,0,1-2.44-4.33,33.49,33.49,0,0,1-.67-7.49V139.32h11v9c0,2,.29,3.31.89,3.94s1.95.94,4,.94,3.52-.33,4-1,.79-2,.79-3.88v-8.1a12,12,0,0,0-.22-2.44,3.74,3.74,0,0,0-.95-1.77,7.83,7.83,0,0,0-2.05-1.5,31.84,31.84,0,0,0-3.66-1.61c-1.48-.59-2.79-1.15-3.94-1.67s-2.16-1-3.05-1.44a19.18,19.18,0,0,1-3.44-2.22A8.36,8.36,0,0,1,289,125a9.83,9.83,0,0,1-1.06-3.27,30.38,30.38,0,0,1-.28-4.38v-8.1a33.49,33.49,0,0,1,.67-7.49,8,8,0,0,1,2.38-4.33,9.3,9.3,0,0,1,4.83-1.94,60.54,60.54,0,0,1,8.1-.44,59.68,59.68,0,0,1,8,.44,9.3,9.3,0,0,1,4.82,1.94,7.68,7.68,0,0,1,2.33,4.33,36.66,36.66,0,0,1,.61,7.49v6.1Z"/><path class="cls-2" d="M347.8,115.36v-5c0-1.93-.28-3.2-.84-3.83s-1.89-.94-4-.94-3.54.31-4.1.94-.84,1.9-.84,3.83v5.32a11.51,11.51,0,0,0,.17,2.22,4.13,4.13,0,0,0,.72,1.67,5.49,5.49,0,0,0,1.73,1.44,26.22,26.22,0,0,0,3.07,1.44q2.44,1,4.29,1.89c1.23.59,2.36,1.15,3.4,1.66a22.05,22.05,0,0,1,3.91,2.39,9.34,9.34,0,0,1,2.23,2.49,7.86,7.86,0,0,1,1,2.83,23.93,23.93,0,0,1,.22,3.49v12.32a37.5,37.5,0,0,1-.6,7.49,7.72,7.72,0,0,1-2.34,4.33,9.16,9.16,0,0,1-4.77,1.94,73.22,73.22,0,0,1-16,0,9.64,9.64,0,0,1-4.88-1.94,7.88,7.88,0,0,1-2.44-4.33,34.18,34.18,0,0,1-.66-7.49V139.32h11v9c0,2,.3,3.31.9,3.94s1.94.94,4,.94,3.51-.33,4-1,.78-2,.78-3.88v-8.1a11.36,11.36,0,0,0-.22-2.44,3.72,3.72,0,0,0-.94-1.77,7.9,7.9,0,0,0-2.06-1.5,30.34,30.34,0,0,0-3.66-1.61c-1.48-.59-2.79-1.15-3.93-1.67s-2.17-1-3.06-1.44a19.54,19.54,0,0,1-3.44-2.22,8.5,8.5,0,0,1-2.1-2.55,10.06,10.06,0,0,1-1.06-3.27,30.53,30.53,0,0,1-.27-4.38v-8.1a34.18,34.18,0,0,1,.66-7.49,8,8,0,0,1,2.39-4.33,9.23,9.23,0,0,1,4.82-1.94,60.54,60.54,0,0,1,8.1-.44,59.57,59.57,0,0,1,8,.44,9.23,9.23,0,0,1,4.82,1.94,7.69,7.69,0,0,1,2.34,4.33,37.5,37.5,0,0,1,.6,7.49v6.1Z"/></g></g></svg>